<svg xmlns="http://www.w3.org/2000/svg" viewBox="0 0 32 32" width="32" height="32">
  <defs>
    <linearGradient id="gradient" x1="0%" y1="0%" x2="100%" y2="100%">
      <stop offset="0%" style="stop-color:#00d4ff;stop-opacity:1" />
      <stop offset="100%" style="stop-color:#8b5cf6;stop-opacity:1" />
    </linearGradient>
  </defs>
  
  <!-- Fundo -->
  <rect width="32" height="32" rx="6" fill="#0a0a0a"/>
  
  <!-- Letra V -->
  <path d="M6 8 L12 24 L16 14 L20 24 L26 8 L22 8 L18 18 L16 12 L14 18 L10 8 Z" fill="url(#gradient)"/>
  
  <!-- Letra S -->
  <path d="M6 26 Q6 28 8 28 L24 28 Q26 28 26 26 Q26 24 24 24 L10 24 Q8 24 8 22 Q8 20 10 20 L24 20 Q26 20 26 18 Q26 16 24 16 L8 16 Q6 16 6 18" fill="none" stroke="url(#gradient)" stroke-width="1.5"/>
</svg>